<?xml version="1.0" encoding="UTF-8"?>
<svg id="Layer_2" data-name="Layer 2" xmlns="http://www.w3.org/2000/svg" viewBox="0 0 350 350">
  <defs>
    <style>
      .cls-1 {
        fill: #009a00;
      }

      .cls-2, .cls-3 {
        fill: none;
      }

      .cls-4 {
        fill: #9c0;
      }

      .cls-5 {
        fill: #2c2d2c;
      }

      .cls-3 {
        stroke: #2c2d2c;
        stroke-width: 20px;
      }

      .cls-6 {
        fill: #fafffa;
      }
    </style>
  </defs>
  <g id="Layer_1-2" data-name="Layer 1">
    <rect class="cls-6" x="0" y="0" width="350" height="350" rx="175" ry="175"/>
    <g>
      <path class="cls-1" d="M160.43,186.4c-11.01-24.99-3.7-11.25-14.64-32.49-4.29-8.32-16.74-14.01-16.74-14.01,0,0-13.3-4.88-45.48-15.79-3.95-.4-1.53-6.45-.03-10.17l.03-.08c3.95-9.85,43.62,13.91,43.62,13.91,0,0,11.83,7.55,20.42,8.79,19.42,2.8,43.32-18.65,65.67-41.21,2.61-2.63,5.28,5.15,3.79,8.26-10.64,22.29-62.4,44.15-62.4,44.15,22.99,39.13,27.67,35.19,80.21,44.54l-11.18,17.54s-50.63-2.62-63.28-23.44h.01Z"/>
      <path class="cls-2" d="M115.71,108.43c31.25-23.68,76.26-17.29,100.49,14.68,24.23,31.97,18.19,77.04-13.05,100.71-31.25,23.68-76.26,17.29-100.49-14.68-24.22-31.97-18.19-77.03,13.06-100.71h0Z"/>
      <path class="cls-3" d="M115.71,108.43c31.25-23.68,76.26-17.29,100.49,14.68,24.23,31.97,18.19,77.04-13.05,100.71-31.25,23.68-76.26,17.29-100.49-14.68-24.22-31.97-18.19-77.03,13.06-100.71h0Z"/>
      <rect class="cls-5" x="227.57" y="197.79" width="22.8" height="20.7" transform="translate(-54.75 327.13) rotate(-63.11)"/>
      <rect class="cls-5" x="255.8" y="197.41" width="32.77" height="54.57" transform="translate(-51.32 365.83) rotate(-63.11)"/>
      <path class="cls-4" d="M201,91.3c-13.11,12.35-12.16,33.9-12.16,33.9,0,0,22.22,1.55,35.34-10.8,13.12-12.35,12.16-33.9,12.16-33.9,0,0-22.23-1.54-35.34,10.8h0Z"/>
      <path class="cls-4" d="M80.15,129.25c16.8,8.79,39.46.49,39.46.49,0,0-4.58-22.54-21.39-31.32-16.8-8.79-39.46-.49-39.46-.49,0,0,4.58,22.54,21.39,31.32Z"/>
    </g>
  </g>
</svg>