<?xml version="1.0" encoding="UTF-8"?>
<svg id="Layer_2" data-name="Layer 2" xmlns="http://www.w3.org/2000/svg" viewBox="0 0 1274.41 171.28">
  <defs>
    <style>
      .cls-1 {
        fill: #009a00;
      }

      .cls-2, .cls-3 {
        fill: none;
      }

      .cls-4 {
        fill: #9c0;
      }

      .cls-5 {
        fill: #2d2c2c;
      }

      .cls-3 {
        stroke: #2d2c2c;
        stroke-width: 20px;
      }
    </style>
  </defs>
  <g id="Layer_1-2" data-name="Layer 1">
    <g>
      <path class="cls-1" d="M101.67,105.96c-11.01-24.99-3.7-11.25-14.64-32.49-4.29-8.32-16.74-14.01-16.74-14.01,0,0-13.3-4.88-45.48-15.79-3.95-.4-1.53-6.45-.03-10.17l.03-.08c3.95-9.85,43.62,13.91,43.62,13.91,0,0,11.83,7.55,20.42,8.79,19.42,2.8,43.32-18.65,65.67-41.21,2.61-2.63,5.28,5.15,3.79,8.26-10.64,22.29-62.4,44.15-62.4,44.15,22.99,39.13,27.67,35.19,80.21,44.54l-11.18,17.54s-50.63-2.62-63.28-23.44h.01Z"/>
      <path class="cls-2" d="M56.95,27.99c31.25-23.68,76.26-17.29,100.49,14.68,24.23,31.97,18.19,77.04-13.05,100.71-31.25,23.68-76.26,17.29-100.49-14.68-24.22-31.97-18.19-77.03,13.06-100.71h0Z"/>
      <path class="cls-3" d="M56.95,27.99c31.25-23.68,76.26-17.29,100.49,14.68,24.23,31.97,18.19,77.04-13.05,100.71-31.25,23.68-76.26,17.29-100.49-14.68-24.22-31.97-18.19-77.03,13.06-100.71h0Z"/>
      <rect class="cls-5" x="168.8" y="117.35" width="22.8" height="20.7" transform="translate(-15.19 230.67) rotate(-63.11)"/>
      <rect class="cls-5" x="197.04" y="116.97" width="32.77" height="54.57" transform="translate(-11.76 269.36) rotate(-63.11)"/>
      <path class="cls-4" d="M142.24,10.86c-13.11,12.35-12.16,33.9-12.16,33.9,0,0,22.22,1.55,35.34-10.8C178.54,21.61,177.58.06,177.58.06c0,0-22.23-1.54-35.34,10.8h0Z"/>
      <path class="cls-4" d="M21.39,48.81c16.8,8.79,39.46.49,39.46.49,0,0-4.58-22.54-21.39-31.32-16.8-8.79-39.46-.49-39.46-.49,0,0,4.58,22.54,21.39,31.32Z"/>
    </g>
    <path class="cls-1" d="M292.45,137.25V51h-34.06v-30.53h107.35v30.53h-34.06v86.25h-39.22ZM373.14,137.25V46h35.73v27.53l-5.82-7.84c2.77-7.12,7.2-12.46,13.29-16.02,6.09-3.56,13.4-5.34,21.93-5.34v33.37c-1.66-.22-3.16-.39-4.49-.5-1.22-.11-2.49-.17-3.82-.17-5.65,0-10.3,1.5-13.96,4.5-3.55,2.89-5.32,7.95-5.32,15.18v40.54h-37.55ZM496.13,138.92c-10.3,0-19.44-2-27.42-6.01-7.87-4.12-14.07-9.73-18.61-16.85-4.54-7.12-6.81-15.29-6.81-24.52s2.27-17.41,6.81-24.52c4.54-7.12,10.75-12.68,18.61-16.68,7.98-4,17.11-6.01,27.42-6.01s19.44,2,27.42,6.01c7.98,4,14.18,9.56,18.61,16.68,4.54,7.12,6.81,15.29,6.81,24.52s-2.27,17.41-6.81,24.52c-4.43,7.12-10.63,12.73-18.61,16.85-7.98,4-17.12,6.01-27.42,6.01ZM496.13,109.56c2.77,0,5.26-.67,7.48-2,2.22-1.33,3.99-3.34,5.32-6.01,1.33-2.78,1.99-6.12,1.99-10.01s-.67-7.28-1.99-9.84c-1.33-2.67-3.1-4.67-5.32-6.01-2.21-1.33-4.71-2-7.48-2s-5.26.67-7.48,2c-2.22,1.33-3.99,3.34-5.32,6.01-1.33,2.56-1.99,5.84-1.99,9.84s.66,7.23,1.99,10.01c1.33,2.67,3.1,4.67,5.32,6.01,2.21,1.33,4.71,2,7.48,2ZM621.38,138.92c-7.87,0-14.4-1.67-19.61-5-5.1-3.45-8.86-8.62-11.3-15.52-2.44-7.01-3.66-15.9-3.66-26.69s1.11-19.96,3.32-26.86c2.33-7.01,6.04-12.18,11.13-15.52,5.1-3.34,11.8-5,20.11-5s15.29,1.95,21.94,5.84c6.65,3.78,11.96,9.23,15.95,16.35,3.99,7.01,5.98,15.4,5.98,25.19s-1.99,18.24-5.98,25.36c-3.99,7.01-9.31,12.4-15.95,16.18-6.65,3.78-13.96,5.67-21.94,5.67ZM560.73,169.62V46h35.73v12.35l.17,33.37,1.66,33.37v44.54h-37.55ZM612.4,109.56c2.77,0,5.26-.67,7.48-2,2.22-1.33,3.99-3.34,5.32-6.01,1.33-2.67,1.99-5.95,1.99-9.84s-.66-7.34-1.99-10.01c-1.33-2.67-3.1-4.67-5.32-6.01-2.21-1.33-4.71-2-7.48-2s-5.26.67-7.48,2c-2.21,1.33-3.99,3.34-5.32,6.01-1.33,2.67-1.99,6.01-1.99,10.01s.67,7.17,1.99,9.84c1.33,2.67,3.1,4.67,5.32,6.01,2.22,1.33,4.71,2,7.48,2ZM677.08,137.25V46h37.55v91.26h-37.55ZM695.85,38.66c-6.87,0-12.35-1.84-16.45-5.51-4.1-3.67-6.15-8.23-6.15-13.68s2.05-10.01,6.15-13.68c4.1-3.67,9.58-5.51,16.45-5.51s12.36,1.72,16.45,5.17c4.1,3.45,6.15,7.9,6.15,13.35,0,5.78-2.05,10.57-6.15,14.35-4.1,3.67-9.58,5.51-16.45,5.51ZM777.47,171.28c-8.97,0-17.39-.95-25.26-2.84-7.86-1.89-14.62-4.73-20.27-8.51l12.63-25.69c3.55,2.78,8.03,4.95,13.46,6.51,5.54,1.67,10.75,2.5,15.62,2.5,7.76,0,13.29-1.67,16.62-5,3.32-3.23,4.99-7.9,4.99-14.01v-7.67l1.66-28.36.17-28.36v-13.85h35.73v73.07c0,17.68-4.87,30.81-14.62,39.37-9.75,8.56-23.32,12.85-40.71,12.85ZM770.16,132.25c-7.64,0-14.79-1.78-21.44-5.34-6.65-3.67-12.02-8.79-16.12-15.35-4.1-6.56-6.15-14.35-6.15-23.36s2.05-16.79,6.15-23.36c4.1-6.56,9.47-11.62,16.12-15.18,6.65-3.56,13.79-5.34,21.44-5.34s14.29,1.56,19.28,4.67c5.1,3.11,8.87,7.95,11.3,14.51,2.44,6.45,3.66,14.68,3.66,24.69s-1.22,18.3-3.66,24.86c-2.43,6.45-6.2,11.29-11.3,14.51-4.98,3.11-11.41,4.67-19.28,4.67ZM780.13,102.88c2.99,0,5.65-.61,7.98-1.84s4.15-2.95,5.48-5.17c1.33-2.22,1.99-4.78,1.99-7.67s-.66-5.56-1.99-7.67c-1.33-2.22-3.16-3.89-5.48-5-2.33-1.22-4.99-1.84-7.98-1.84s-5.54.61-7.98,1.84c-2.33,1.11-4.21,2.78-5.65,5-1.33,2.11-1.99,4.67-1.99,7.67s.66,5.45,1.99,7.67c1.44,2.22,3.32,3.95,5.65,5.17,2.44,1.22,5.1,1.84,7.98,1.84ZM899.6,138.92c-11.08,0-20.77-2.06-29.08-6.17-8.2-4.12-14.57-9.73-19.11-16.85-4.54-7.23-6.81-15.35-6.81-24.36s2.21-17.41,6.65-24.52c4.54-7.12,10.69-12.68,18.44-16.68,7.87-4,16.67-6.01,26.42-6.01,8.97,0,17.22,1.78,24.76,5.34,7.64,3.56,13.73,8.84,18.28,15.85,4.65,7.01,6.98,15.68,6.98,26.03,0,1.33-.06,2.84-.17,4.5-.11,1.56-.22,3-.33,4.34h-69.96v-18.18h50.02l-14.12,4.84c0-3.56-.66-6.56-1.99-9.01-1.22-2.56-2.94-4.5-5.15-5.84-2.22-1.45-4.88-2.17-7.98-2.17s-5.82.72-8.14,2.17c-2.22,1.33-3.93,3.28-5.15,5.84-1.22,2.45-1.83,5.45-1.83,9.01v5.67c0,3.89.77,7.23,2.33,10.01,1.55,2.78,3.76,4.89,6.65,6.34,2.88,1.33,6.37,2,10.47,2s7.64-.56,10.3-1.67c2.77-1.11,5.65-2.78,8.64-5l19.61,19.85c-4.43,4.78-9.92,8.45-16.45,11.01-6.43,2.45-14.18,3.67-23.26,3.67ZM1021.12,44.33c6.98,0,13.29,1.45,18.94,4.34,5.65,2.78,10.08,7.17,13.29,13.18,3.32,6.01,4.98,13.79,4.98,23.36v52.05h-37.55v-45.54c0-5.67-1-9.68-2.99-12.01-1.99-2.45-4.71-3.67-8.14-3.67-2.55,0-4.93.61-7.15,1.84-2.11,1.11-3.82,3-5.15,5.67-1.22,2.67-1.83,6.28-1.83,10.84v42.88h-37.55V46h35.73v26.69l-7.15-7.67c3.54-6.9,8.31-12.07,14.29-15.52,6.09-3.45,12.85-5.17,20.27-5.17ZM1125.13,138.92c-10.41,0-19.66-2-27.75-6.01-8.09-4-14.46-9.56-19.11-16.68-4.54-7.23-6.81-15.46-6.81-24.69s2.27-17.41,6.81-24.52c4.65-7.12,11.02-12.68,19.11-16.68,8.09-4,17.34-6.01,27.75-6.01,11.08,0,20.55,2.39,28.42,7.17s13.29,11.4,16.29,19.85l-29.08,14.35c-1.88-4.23-4.21-7.29-6.98-9.18-2.66-1.89-5.6-2.84-8.81-2.84-2.77,0-5.37.67-7.81,2-2.33,1.33-4.21,3.34-5.65,6.01-1.33,2.56-1.99,5.84-1.99,9.84s.66,7.34,1.99,10.01c1.44,2.67,3.32,4.67,5.65,6.01,2.44,1.33,5.04,2,7.81,2,3.21,0,6.15-.95,8.81-2.84,2.77-1.89,5.1-4.95,6.98-9.18l29.08,14.35c-2.99,8.45-8.42,15.07-16.29,19.85-7.86,4.78-17.34,7.17-28.42,7.17ZM1227.88,138.92c-11.08,0-20.77-2.06-29.08-6.17-8.2-4.12-14.57-9.73-19.11-16.85-4.54-7.23-6.81-15.35-6.81-24.36s2.21-17.41,6.65-24.52c4.54-7.12,10.69-12.68,18.45-16.68,7.86-4,16.67-6.01,26.42-6.01,8.97,0,17.23,1.78,24.76,5.34,7.64,3.56,13.74,8.84,18.28,15.85,4.65,7.01,6.98,15.68,6.98,26.03,0,1.33-.05,2.84-.17,4.5-.11,1.56-.22,3-.33,4.34h-69.96v-18.18h50.02l-14.13,4.84c0-3.56-.66-6.56-1.99-9.01-1.22-2.56-2.94-4.5-5.15-5.84-2.21-1.45-4.87-2.17-7.98-2.17s-5.82.72-8.14,2.17c-2.22,1.33-3.93,3.28-5.15,5.84-1.22,2.45-1.83,5.45-1.83,9.01v5.67c0,3.89.78,7.23,2.33,10.01,1.55,2.78,3.77,4.89,6.65,6.34,2.88,1.33,6.37,2,10.47,2s7.64-.56,10.3-1.67c2.77-1.11,5.65-2.78,8.64-5l19.61,19.85c-4.43,4.78-9.92,8.45-16.45,11.01-6.43,2.45-14.18,3.67-23.26,3.67Z"/>
  </g>
</svg>